<?xml version="1.0" standalone="no"?>
<!DOCTYPE svg PUBLIC "-//W3C//DTD SVG 20010904//EN"
 "http://www.w3.org/TR/2001/REC-SVG-20010904/DTD/svg10.dtd">
<svg version="1.0" xmlns="http://www.w3.org/2000/svg"
 width="500.000000pt" height="500.000000pt" viewBox="0 0 500.000000 500.000000"
 preserveAspectRatio="xMidYMid meet">

<g transform="translate(0.000000,500.000000) scale(0.100000,-0.100000)"
fill="#000000" stroke="none">
<path d="M1749 2783 c-1 -181 -1 -332 0 -337 1 -5 -8 -5 -21 -1 -13 4 -48 9
-78 12 -48 4 -61 1 -101 -25 -83 -54 -114 -171 -62 -240 36 -49 70 -66 136
-70 88 -5 142 24 180 98 l27 54 0 288 c0 158 4 288 8 288 19 0 90 -60 110 -92
35 -57 44 -111 31 -176 -21 -100 6 -117 59 -38 56 82 66 169 31 262 -17 46
-38 73 -101 133 -44 42 -95 97 -115 124 -30 40 -40 47 -69 47 l-34 0 -1 -327z"/>
<path d="M1075 2893 c-74 -27 -121 -67 -152 -131 -24 -50 -28 -69 -28 -147 0
-83 3 -96 37 -165 61 -125 186 -255 362 -379 33 -22 67 -41 77 -41 21 0 129
66 129 79 0 4 -9 16 -21 27 -80 72 -75 216 9 299 54 51 86 65 156 65 l61 0 -2
102 c-1 57 -2 144 -3 195 l0 91 -31 11 c-83 29 -201 -1 -263 -67 l-29 -31 -39
34 c-82 70 -173 90 -263 58z"/>
<path d="M2310 2725 l0 -165 25 0 25 0 0 112 c0 112 6 124 29 58 7 -19 17 -44
21 -55 5 -11 16 -41 26 -67 13 -38 21 -48 39 -48 20 0 29 16 68 113 l46 112 1
-112 0 -113 25 0 25 0 0 165 0 165 -30 0 c-22 0 -33 -6 -39 -22 -5 -13 -26
-66 -46 -118 -20 -52 -40 -99 -44 -103 -4 -4 -30 49 -57 118 -49 124 -49 125
-81 125 l-33 0 0 -165z"/>
<path d="M3184 2875 c-8 -19 3 -35 26 -35 19 0 30 17 23 38 -6 17 -42 15 -49
-3z"/>
<path d="M2693 2785 c-3 -9 -3 -52 -1 -96 4 -65 9 -83 28 -104 28 -30 84 -34
112 -8 17 15 18 15 18 0 0 -11 8 -17 25 -17 l25 0 0 120 0 120 -25 0 c-25 0
-25 -1 -25 -78 0 -87 -16 -122 -55 -122 -39 0 -55 35 -55 122 0 72 -2 78 -20
78 -11 0 -23 -7 -27 -15z"/>
<path d="M2973 2783 c-16 -11 -23 -25 -23 -49 0 -28 6 -38 33 -54 17 -11 44
-20 58 -20 35 0 56 -24 39 -45 -7 -8 -23 -15 -35 -15 -12 0 -28 7 -35 15 -18
22 -60 20 -60 -4 0 -51 121 -71 165 -26 48 47 21 106 -53 119 -48 8 -66 20
-59 40 7 18 62 22 72 6 8 -13 55 -13 55 0 0 5 -10 18 -22 30 -27 25 -102 27
-135 3z"/>
<path d="M3180 2680 l0 -120 25 0 25 0 0 120 0 120 -25 0 -25 0 0 -120z"/>
<path d="M3309 2771 c-28 -28 -35 -55 -30 -111 9 -91 118 -134 182 -71 16 16
29 34 29 40 0 18 -39 12 -60 -9 -26 -26 -50 -25 -78 0 -26 25 -30 85 -6 118
20 29 69 30 86 2 7 -11 23 -20 35 -20 26 0 27 3 11 33 -18 35 -40 46 -91 47
-41 0 -53 -5 -78 -29z"/>
<path d="M2310 2330 l0 -160 100 0 c93 0 100 1 100 20 0 18 -7 20 -75 20 l-75
0 0 140 0 140 -25 0 -25 0 0 -160z"/>
<path d="M3270 2330 l0 -160 25 0 24 0 -2 160 c-2 159 -2 160 -24 160 -23 0
-23 -1 -23 -160z"/>
<path d="M2572 2375 c-72 -61 -39 -193 53 -211 118 -22 186 139 91 218 -33 27
-108 24 -144 -7z m126 -48 c29 -60 -15 -139 -68 -122 -28 9 -55 66 -46 98 15
63 89 78 114 24z"/>
<path d="M2770 2395 c0 -8 48 -149 65 -187 13 -32 20 -38 45 -38 16 0 31 4 34
9 8 12 76 204 76 214 0 4 -11 7 -25 7 -22 0 -27 -9 -52 -90 -15 -49 -30 -90
-33 -90 -3 0 -18 41 -33 90 -25 81 -30 90 -52 90 -14 0 -25 -2 -25 -5z"/>
<path d="M3039 2369 c-25 -26 -29 -39 -29 -85 0 -45 5 -59 29 -86 26 -29 36
-33 79 -33 40 0 56 5 76 24 14 14 26 28 26 32 0 16 -46 13 -62 -3 -24 -24 -49
-23 -76 2 -43 40 -30 50 63 50 79 0 85 1 85 21 0 25 -16 57 -43 87 -16 17 -31
22 -70 22 -42 0 -53 -4 -78 -31z m119 -21 c7 -7 12 -20 12 -30 0 -15 -9 -18
-55 -18 -59 0 -63 4 -39 38 17 24 62 30 82 10z"/>
<path d="M3350 2397 c0 -2 16 -46 35 -97 19 -51 37 -106 40 -122 8 -33 -8 -58
-36 -58 -12 0 -19 -7 -19 -20 0 -15 7 -20 28 -20 42 0 69 25 92 88 45 117 80
215 80 224 0 4 -11 8 -24 8 -20 0 -26 -10 -51 -86 -15 -47 -32 -81 -36 -77 -5
5 -19 42 -32 83 -21 67 -26 75 -50 78 -15 2 -27 1 -27 -1z"/>
<path d="M3684 2382 c-48 -38 -58 -113 -24 -170 24 -38 62 -56 107 -47 29 5
73 45 73 66 0 18 -40 9 -50 -11 -14 -27 -61 -26 -86 1 -24 26 -24 103 -1 126
21 22 77 21 89 0 10 -19 48 -23 48 -7 0 6 -11 22 -25 35 -30 31 -98 34 -131 7z"/>
<path d="M3917 2389 c-27 -16 -47 -64 -47 -113 0 -36 6 -52 29 -78 25 -28 36
-33 76 -33 40 0 51 5 76 33 46 52 39 141 -15 184 -23 19 -91 23 -119 7z m110
-56 c17 -26 13 -94 -7 -118 -13 -16 -57 -20 -76 -7 -18 11 -34 49 -34 77 0 76
78 108 117 48z"/>
<path d="M4120 2285 c0 -108 1 -115 20 -115 18 0 20 7 20 84 0 93 9 110 57
104 l28 -3 3 -92 c3 -91 3 -93 27 -93 24 0 25 2 25 79 0 99 5 111 41 111 39 0
49 -24 49 -114 0 -70 2 -76 21 -76 20 0 21 4 17 94 -2 75 -7 98 -22 115 -23
25 -67 27 -100 6 -21 -14 -24 -14 -36 0 -14 17 -62 20 -91 5 -13 -7 -19 -7
-19 0 0 5 -9 10 -20 10 -19 0 -20 -7 -20 -115z"/>
<path d="M3567 2213 c-13 -12 -7 -41 10 -47 21 -8 48 17 40 38 -6 16 -38 22
-50 9z"/>
</g>
</svg>
